<!DOCTYPE svg PUBLIC "-//W3C//DTD SVG 20010904//EN" "http://www.w3.org/TR/2001/REC-SVG-20010904/DTD/svg10.dtd">
<svg version="1.0" xmlns="http://www.w3.org/2000/svg" width="400px" height="400px" viewBox="0 0 4000 4000" preserveAspectRatio="xMidYMid meet">
<g id="layer101" fill="#ffffff" stroke="none">
 <path d="M1725 3700 c-204 -36 -341 -82 -515 -172 -439 -225 -770 -640 -889 -1113 -70 -278 -70 -592 0 -870 153 -606 648 -1101 1254 -1254 278 -70 592 -70 870 0 473 119 888 450 1113 889 135 262 192 499 192 800 0 473 -165 880 -494 1218 -267 275 -595 443 -986 507 -133 21 -414 19 -545 -5z m445 -55 c186 -13 411 -79 600 -176 162 -84 287 -176 420 -309 350 -350 522 -807 488 -1301 -39 -585 -395 -1112 -933 -1382 -451 -225 -1019 -225 -1470 0 -332 167 -601 436 -768 768 -225 451 -225 1019 0 1470 268 535 795 892 1377 934 61 5 131 7 156 5 25 -2 83 -6 130 -9z"/>
 </g>

</svg>